<svg width="18" height="13" viewBox="0 0 18 13" fill="none" xmlns="http://www.w3.org/2000/svg">
<path fill-rule="evenodd" clip-rule="evenodd" d="M17.4808 2.10814C17.6385 2.10814 17.7877 2.1809 17.8862 2.30591C17.9848 2.43094 18.022 2.59463 17.9873 2.75085L16.4297 9.77787C16.3764 10.0183 16.166 10.1892 15.9231 10.1892H5.49889L5.89826 11.946H15.8884C16.1752 11.946 16.4077 12.1819 16.4077 12.473C16.4077 12.764 16.1752 13 15.8884 13H5.48518C5.24341 13 5.0336 12.8306 4.97925 12.5915L2.35617 1.05407H0.519222C0.232488 1.05407 0 0.818129 0 0.527054C0 0.235979 0.232488 0 0.519222 0H2.76922C3.01099 0 3.22077 0.169392 3.27515 0.408511L3.66159 2.10814H17.4808ZM5.25923 9.13513H15.5077L16.8317 3.16218H3.90125L5.25923 9.13513Z" fill="#443737"/>
</svg>
